<svg xmlns="http://www.w3.org/2000/svg" viewBox="0 0 760.81 390"><defs><style>.cls-1{fill:#1b1b1b;}.cls-2{fill:#fff;}.cls-3{fill:#3f3f3f;}</style></defs><g id="Layer_2" data-name="Layer 2"><g id="Layer_1-2" data-name="Layer 1"><rect class="cls-1" width="760.81" height="390"/><polygon class="cls-2" points="248.14 305.94 213.21 310.07 216.7 345.06 191.7 320.33 166.51 344.88 170.26 309.91 135.37 305.52 165.04 286.65 146.72 256.63 179.97 268.06 192.01 235.02 203.81 268.15 237.15 256.97 218.6 286.85 248.14 305.94"/><polygon class="cls-2" points="610.92 335.33 592.87 337.62 594.83 355.72 581.78 343.03 568.85 355.85 570.63 337.73 552.55 335.62 567.83 325.72 558.21 310.26 575.47 316.03 581.56 298.88 587.81 315.97 605.02 310.03 595.55 325.58 610.92 335.33"/><polygon class="cls-2" points="610.38 231.97 612.75 220.46 604.07 212.54 615.75 211.23 620.6 200.53 625.45 211.23 637.12 212.54 628.45 220.46 630.81 231.97 620.6 226.16 610.38 231.97"/><polygon class="cls-2" points="511.51 179.1 493.6 181.06 495.23 199 482.52 186.22 469.51 198.68 471.58 180.78 453.73 178.38 469.01 168.84 459.76 153.38 476.75 159.38 483.07 142.51 488.96 159.54 506.1 153.95 496.46 169.18 511.51 179.1"/><polygon class="cls-2" points="701.8 150.15 683.37 152.49 685.38 170.96 672.06 158.01 658.87 171.09 660.69 152.61 642.24 150.45 657.83 140.35 648.01 124.58 665.63 130.47 671.83 112.96 678.22 130.4 695.77 124.34 686.11 140.21 701.8 150.15"/><polygon class="cls-2" points="610.85 76.45 592.57 78.45 594.24 96.77 581.28 83.72 568 96.44 570.12 78.17 551.89 75.72 567.49 65.99 558.05 50.21 575.39 56.34 581.83 39.12 587.85 56.5 605.33 50.8 595.5 66.34 610.85 76.45"/><polygon class="cls-2" points="385.2 0 343.63 0 225.73 59.4 225.73 0 159.6 0 159.6 59.4 41.7 0 0 0 0 23.7 83.7 66 0 66 0.02 130.8 83.84 130.8 0.07 173.1 0 196.8 41.84 196.8 159.74 137.4 159.74 196.8 225.6 196.8 225.6 137.41 343.49 196.8 385.2 196.8 385.2 173.11 301.5 130.81 385.2 130.81 385.2 66 301.63 66 385.2 23.77 385.2 0"/><polygon class="cls-3" points="213.6 0 172.2 0 172.2 79.8 0 79.8 0 117.6 172.2 117.61 172.2 196.8 213.6 196.8 213.6 117.61 385.2 117.6 385.29 79.8 213.6 79.8 213.6 0"/><polygon class="cls-3" points="256.1 66 385.5 0 358.94 0 231.43 66 256.1 66"/><polygon class="cls-3" points="127.5 66 0 0 0 15.9 97.8 66 127.5 66"/><polygon class="cls-3" points="130.1 130.8 0 196.8 0.07 196.8 26.54 196.8 154.04 130.8 130.1 130.8"/><polygon class="cls-3" points="257.7 130.81 385.2 196.81 385.2 180.91 287.4 130.81 257.7 130.81"/></g></g></svg>