<svg xmlns="http://www.w3.org/2000/svg" xmlns:xlink="http://www.w3.org/1999/xlink" viewBox="0 0 100 100"><defs><style>.cls-1{fill:none;}.cls-2{fill:#1b1b1b;}.cls-3{clip-path:url(#clip-path);}.cls-4{fill:#fff;}</style><clipPath id="clip-path"><rect class="cls-1" x="12.5" y="12.5" width="75" height="75"/></clipPath></defs><g id="Layer_2" data-name="Layer 2"><g id="Background_Layer" data-name="Background Layer"><rect class="cls-2" width="100" height="100" rx="15"/></g><g id="Icons"><g class="cls-3"><path class="cls-4" d="M50,19.25c10,0,11.21.05,15.15.22a20.48,20.48,0,0,1,6.95,1.29,11.65,11.65,0,0,1,4.31,2.8,11.44,11.44,0,0,1,2.8,4.31,20.6,20.6,0,0,1,1.29,7c.17,4,.22,5.15.22,15.15s0,11.21-.22,15.15a20.62,20.62,0,0,1-1.29,7,11.57,11.57,0,0,1-2.8,4.3,11.44,11.44,0,0,1-4.31,2.8,20.6,20.6,0,0,1-6.95,1.29c-4,.17-5.15.22-15.15.22s-11.21,0-15.15-.22a20.48,20.48,0,0,1-7-1.29,12.39,12.39,0,0,1-7.11-7.1,20.74,20.74,0,0,1-1.29-7c-.17-4-.22-5.14-.22-15.15s0-11.21.22-15.15a20.48,20.48,0,0,1,1.29-6.95,12.37,12.37,0,0,1,7.11-7.11,20.6,20.6,0,0,1,7-1.29C38.79,19.3,40,19.25,50,19.25Zm0-6.75c-10.18,0-11.45,0-15.45.22a27.57,27.57,0,0,0-9.1,1.74A18.25,18.25,0,0,0,18.8,18.8a18.35,18.35,0,0,0-4.34,6.63,27.73,27.73,0,0,0-1.74,9.1c-.18,4-.22,5.29-.22,15.47s0,11.45.22,15.45a27.57,27.57,0,0,0,1.74,9.1,19.24,19.24,0,0,0,11,11,27.44,27.44,0,0,0,9.1,1.75c4,.17,5.27.22,15.46.22s11.45,0,15.45-.22a27.39,27.39,0,0,0,9.1-1.75,19.17,19.17,0,0,0,10.95-11,27.44,27.44,0,0,0,1.75-9.1c.17-4,.22-5.27.22-15.46s0-11.45-.22-15.45a27.39,27.39,0,0,0-1.75-9.1A17.45,17.45,0,0,0,81.2,18.8a18.29,18.29,0,0,0-6.63-4.32,27.44,27.44,0,0,0-9.1-1.75C61.46,12.54,60.18,12.5,50,12.5Z"/><path class="cls-4" d="M50,30.74A19.26,19.26,0,1,0,69.26,50,19.27,19.27,0,0,0,50,30.74ZM50,62.5A12.5,12.5,0,1,1,62.5,50,12.5,12.5,0,0,1,50,62.5Z"/><path class="cls-4" d="M74.52,30a4.5,4.5,0,1,1-4.5-4.5A4.49,4.49,0,0,1,74.52,30Z"/></g></g></g></svg>