<svg xmlns="http://www.w3.org/2000/svg" xmlns:xlink="http://www.w3.org/1999/xlink" viewBox="0 0 100 100"><defs><style>.cls-1{fill:#fff;}.cls-2{fill:#1b1b1b;}.cls-3{mask:url(#mask);}</style><mask id="mask" x="39.17" y="12.5" width="19.37" height="41.15" maskUnits="userSpaceOnUse"><g id="mask0_201_316" data-name="mask0 201 316"><path class="cls-1" d="M39.17,12.51H58.53V53.65H39.17Z"/></g></mask></defs><g id="Layer_2" data-name="Layer 2"><g id="Background_Layer" data-name="Background Layer"><rect class="cls-2" width="100" height="100" rx="15"/></g><g id="Icons"><path class="cls-1" d="M39.16,70.5s-2.87,1.67,2,2.23a42.87,42.87,0,0,0,15.53-.66,27.26,27.26,0,0,0,4.12,2C46.17,80.38,27.63,73.72,39.16,70.5Z"/><path class="cls-1" d="M37.36,62.29s-3.21,2.38,1.7,2.89a60.71,60.71,0,0,0,20-1,9,9,0,0,0,3.09,1.89c-17.75,5.19-37.52.41-24.82-3.81"/><path class="cls-1" d="M52.49,48.36c3.62,4.17-1,7.92-1,7.92s9.18-4.75,5-10.69c-3.94-5.53-7-8.28,9.4-17.77C65.9,27.82,40.23,34.23,52.49,48.36Z"/><path class="cls-1" d="M71.9,76.57s2.12,1.75-2.33,3.1c-8.48,2.57-35.27,3.35-42.71.11-2.68-1.17,2.34-2.78,3.92-3.12a9.93,9.93,0,0,1,2.58-.29c-3-2.1-19.23,4.11-8.25,5.89C55,87.12,79.67,80.08,71.9,76.57"/><path class="cls-1" d="M40.54,53.78S26.91,57,35.71,58.19c3.72.5,11.13.39,18-.19,5.64-.48,11.3-1.49,11.3-1.49a24.74,24.74,0,0,0-3.42,1.84C47.77,62,21,60.3,28.73,56.57A25.92,25.92,0,0,1,40.54,53.78Z"/><path class="cls-1" d="M65,67.45c14.07-7.31,7.56-14.34,3-13.39a10.7,10.7,0,0,0-1.61.43,2.54,2.54,0,0,1,1.2-.93c9-3.15,15.9,9.32-2.9,14.26A1.37,1.37,0,0,0,65,67.45Z"/><g class="cls-3"><path class="cls-1" d="M56.5,12.5s7.8,7.8-7.39,19.78c-12.17,9.62-2.77,15.1,0,21.36-7.11-6.41-12.32-12-8.82-17.31C45.42,28.62,59.65,24.88,56.5,12.5"/></g><path class="cls-1" d="M41.92,87.26c13.51.87,34.24-.48,34.73-6.87,0,0-.94,2.42-11.16,4.35a110.65,110.65,0,0,1-34.17.52s1.72,1.43,10.6,2"/></g></g></svg>