<svg xmlns="http://www.w3.org/2000/svg" viewBox="0 0 100 100"><defs><style>.cls-1{fill:#1b1b1b;}.cls-2{fill:#fff;fill-rule:evenodd;}</style></defs><g id="Layer_2" data-name="Layer 2"><g id="Background_Layer" data-name="Background Layer"><rect class="cls-1" width="100" height="100" rx="15"/></g><g id="Icons"><path class="cls-2" d="M82,29.86,52,13A4,4,0,0,0,48,13L18,29.86a3.79,3.79,0,0,0-2,3.3V66.85a3.78,3.78,0,0,0,2,3.29L48,87A4,4,0,0,0,52,87L82,70.14a3.79,3.79,0,0,0,2-3.3V33.15A3.78,3.78,0,0,0,82,29.86ZM50,75A25,25,0,1,1,71.31,36.94L60.49,43.22a12.5,12.5,0,1,0,.36,13l10.91,6.09A25,25,0,0,1,50,75Zm8.93-23.21V48.21H62.5V44.64h3.57v3.57h3.57v3.58H66.07v3.57H62.5V51.79Zm23.2,0H78.56v3.57H75V51.79H71.42V48.21H75V44.64h3.57v3.57h3.57Z"/></g></g></svg>