<svg xmlns="http://www.w3.org/2000/svg" viewBox="0 0 100 100"><defs><style>.cls-1{fill:#1b1b1b;}.cls-2{fill:#fff;}.cls-3{fill:#fffefe;}</style></defs><g id="Layer_2" data-name="Layer 2"><g id="Background_Layer" data-name="Background Layer"><rect class="cls-1" width="100" height="100" rx="15"/></g><g id="Icons"><path class="cls-2" d="M22.2,14.26v57.9l-.77.47-11,6.61,0-57.86L22.2,14.26m0-1.75-13.31,8,0,61.37,13.27-8,1.5-.9V12.51Z"/><path class="cls-2" d="M80.05,14a4.6,4.6,0,0,1,1.63.21,2.94,2.94,0,0,1,1.87,2.57V72.39H23.7V67.75c0-17.61,0-35.81,0-53.74H80.05M22.2,12.5h0Zm57.85,0H22.2q0,30.69,0,61.4H63.52q10.75,0,21.53,0V16.78a4.44,4.44,0,0,0-2.86-4,5.73,5.73,0,0,0-2.14-.3Z"/><path class="cls-2" d="M45.06,26H62.51v6.19H58.12V54.31h4.4v6.2H45.06V54.31h4.39V32.22H45.07V26Z"/><path class="cls-3" d="M85.05,26.32V73.88c-21,.05-41.9,0-62.84,0h0l-6.07,3.66v1h0c0,1.45,0,2.9,0,4.36a4.34,4.34,0,0,0,.94,2.88,4.43,4.43,0,0,0,3.41,1.69H91.11V26.32Z"/></g></g></svg>