<svg xmlns="http://www.w3.org/2000/svg" viewBox="0 0 100 100"><defs><style>.cls-1{fill:#1b1b1b;}.cls-2{fill:#fff;}</style></defs><g id="Layer_2" data-name="Layer 2"><g id="Icons"><rect class="cls-1" width="100" height="100" rx="15"/><path class="cls-2" d="M34.72,49l5.53,3.17V45l15-8.8-5.44-3.35L34.72,41.7Z"/><path class="cls-2" d="M49.86,12.3l12.51,7.26L29.47,39.07V55.85l-12-7V31.17Z"/><path class="cls-2" d="M58.57,38.07,53,41.24,59.38,45l-.09,17,5.53-3.17V41.7Z"/><path class="cls-2" d="M82.5,68.65,70,76.09V38.79L54.85,29.9l12.69-7.35,15,8.71Z"/><path class="cls-2" d="M56.12,63.93V57.76l-6.35,3.72-15.05-8.8v6.17l15.14,8.8Z"/><path class="cls-2" d="M17.5,68.92V55.13L49.86,73.64l14.87-8.9.09,14.34L50.23,87.7Z"/></g></g></svg>