<svg xmlns="http://www.w3.org/2000/svg" viewBox="0 0 100 100"><defs><style>.cls-1{fill:#1b1b1b;}.cls-2{fill:#fff;}</style></defs><g id="Layer_2" data-name="Layer 2"><g id="Background_Layer" data-name="Background Layer"><rect class="cls-1" width="100" height="100" rx="15"/></g><g id="Icons"><path class="cls-2" d="M25.57,26.54H40.29L56.8,72.64H43.32l-2.27-7H23.78l-2.27,7H8.57ZM37.46,54.68l-5-15.48-5,15.48Z"/><path class="cls-2" d="M91.44,53.65a33.73,33.73,0,0,1-.35,4.81H68.6c1.37,3.44,4.68,5.09,9.84,5.09a23.22,23.22,0,0,0,10.18-2.2l.14,9.56c-3.52,1.8-7.3,2.41-12.18,2.41-12,0-20.09-6.67-20.09-18.78,0-11.09,7.7-18.45,17.89-18.45s17.06,6.75,17.06,17.55Zm-23.25-3h12c-.27-3.23-2.27-5.5-5.78-5.5S69,46.91,68.19,50.62Z"/></g></g></svg>