<svg xmlns="http://www.w3.org/2000/svg" viewBox="0 0 100 100"><defs><style>.cls-1{fill:#1b1b1b;}.cls-2{fill:#fff;}</style></defs><g id="Layer_2" data-name="Layer 2"><g id="Background_Layer" data-name="Background Layer"><rect class="cls-1" width="100" height="100" rx="15"/></g><g id="Icons"><path class="cls-2" d="M24.11,26.54h12.8v46.1H24.11Z"/><path class="cls-2" d="M41.28,54.89c0-12.52,9.36-18.79,19.06-18.79a23.17,23.17,0,0,1,3.51.28V25.1h12V70.3a36.26,36.26,0,0,1-14.79,3C50.51,73.26,41.28,67.27,41.28,54.89Zm22.56,8.32V46.35a10.1,10.1,0,0,0-3.23-.48c-3.78,0-7.3,2.2-7.3,8.81,0,6.06,3.17,8.81,7.36,8.81a16.48,16.48,0,0,0,3.17-.27Z"/></g></g></svg>