<svg xmlns="http://www.w3.org/2000/svg" viewBox="0 0 100 100"><defs><style>.cls-1{fill:#1b1b1b;}.cls-2{fill:#faf3f3;}.cls-3{fill:#f6f6f6;}</style></defs><g id="Layer_2" data-name="Layer 2"><g id="Background_Layer" data-name="Background Layer"><rect class="cls-1" width="100" height="100" rx="15"/></g><g id="Icons"><path class="cls-2" d="M34.23,74.53c-8-.34-16.16-7.24-16.9-15-.07-.68,0-2.89,0-2.89l6.76,2.2a17.94,17.94,0,0,0,.54,2.88,8.27,8.27,0,0,0,5,5.38c1.91.65,4,1.2,5.26-1s.54-4.18-1.3-5.61c-2.67-2-5.55-3.8-8.25-5.8-3.77-2.8-6.3-6.37-6.2-11.32.1-5.29,3.43-8,8.58-7C33.37,37.64,38,40.4,39.84,46.2a17.06,17.06,0,0,1,1.06,5.37c0,.06-6.7-2.18-6.7-2.18a6.41,6.41,0,0,0-3-5.5c-2.05-1.37-6.32-1.94-6.32,1.17,0,1.72.49,2,2,3.09,2.82,2.07,5.86,3.85,8.65,6,4.9,3.7,7,8.69,5.83,14.77C40.64,72.67,38.26,74.73,34.23,74.53Z"/><path class="cls-3" d="M50,13.39l-38.77,11V74.07L50,88.39,88.77,74.07V24.36ZM50,15l33.62,9.51L50,35.42l-33.62-11ZM48.5,86.24,12.73,73V26.42L48.5,38.08ZM87.27,73,51.5,86.24V38.08L87.27,26.42Z"/><polygon class="cls-2" points="64.07 60.96 67.43 37.54 73.33 35.51 75.92 57.27 78.55 33.59 84.5 31.55 79.25 71.22 74.21 72.87 70.02 49.14 66.69 75.32 60.74 77.26 56.48 41.32 61.48 39.63 64.07 60.96"/></g></g></svg>