<svg xmlns="http://www.w3.org/2000/svg" viewBox="0 0 100 100"><defs><style>.cls-1{fill:#1b1b1b;}.cls-2{fill:#fff;}</style></defs><g id="Layer_2" data-name="Layer 2"><g id="Background_Layer" data-name="Background Layer"><rect class="cls-1" width="100" height="100" rx="15"/></g><g id="Icons"><path class="cls-2" d="M22.7,45.55c-1.15,0-2.29,0-3.43,0-.41,0-1,.05-1.09-.5s.45-.73.83-.83A54.2,54.2,0,0,1,24.47,43a24.19,24.19,0,0,1,9.69.56,15.1,15.1,0,0,1,2.28.82,3.32,3.32,0,0,1,2.06,4.45A17,17,0,0,1,34,56.21a36.25,36.25,0,0,1-11,7.28,42.2,42.2,0,0,1-8.93,3,8.69,8.69,0,0,1-1,.16c-.6.06-.74-.13-.46-.67.67-1.31,1.3-2.64,2-3.9,2-3.49,4.12-7,6.24-10.4a22.74,22.74,0,0,1,2.15-2.66,2.41,2.41,0,0,1,.79-.59.88.88,0,0,1,.73,0,.83.83,0,0,1,.19.72,5.21,5.21,0,0,1-.53,1.24c-1.79,3.28-3.6,6.54-5.39,9.81a7.07,7.07,0,0,0-.55,1.26.8.8,0,0,0,.93,1.12,3.53,3.53,0,0,0,1.19-.34,32.82,32.82,0,0,0,9.81-6.7,13.79,13.79,0,0,0,3.51-5.73c.44-1.58,0-2.71-1.6-3.2a35,35,0,0,0-4.68-.95,17.67,17.67,0,0,0-2.42-.14c-.79,0-1.58,0-2.36,0Z"/><path class="cls-2" d="M38.77,59.29c2.77-.16,5.55-.28,8.32-.49a18.14,18.14,0,0,0,3.35-.62,1.58,1.58,0,0,0,1.08-2.58,43.54,43.54,0,0,0-3.07-4.3c-1.66-2.08-3.45-4-5.09-6.14a9.91,9.91,0,0,1-1.45-2.65,3,3,0,0,1,1.31-3.94A10.14,10.14,0,0,1,48,36.92a28.11,28.11,0,0,1,9.63.59,5,5,0,0,1,1.27.51c.2.11.32.38.48.58a4.92,4.92,0,0,1-.7.41,1.38,1.38,0,0,1-.5,0c-2.4.09-4.81.11-7.2.28a16.26,16.26,0,0,0-3.58.73c-1.35.42-1.58,1.25-.72,2.37,1.94,2.53,3.95,5,5.9,7.56.92,1.2,1.82,2.42,2.62,3.71a9.62,9.62,0,0,1,1.05,2.44,2.94,2.94,0,0,1-1.11,3.21,9.24,9.24,0,0,1-4.3,1.87,27.56,27.56,0,0,1-7.8.28q-2.88-.25-5.73-.66a11.3,11.3,0,0,1-2.19-.67c-.18-.06-.28-.32-.42-.48.18-.12.35-.32.54-.34,1.18-.08,2.36-.13,3.54-.18Z"/><path class="cls-2" d="M30.06,40.4l.72-.61a50.32,50.32,0,0,0,9.15-8.21A21.22,21.22,0,0,0,42.29,28c1-1.76.44-3-1.52-3.46a51.85,51.85,0,0,0-6.34-.82c-1.44-.13-2.9-.08-4.35-.12a4.53,4.53,0,0,1-1-.12c-.18,0-.44-.22-.44-.34a.7.7,0,0,1,.3-.53,13.44,13.44,0,0,1,2.1-.74A24.49,24.49,0,0,1,43.61,22a8,8,0,0,1,2.44,1.29A3,3,0,0,1,47,26.62a12.45,12.45,0,0,1-3.51,6,34.39,34.39,0,0,1-12.6,7.78,1.17,1.17,0,0,1-.37.08A2.84,2.84,0,0,1,30.06,40.4Z"/><path class="cls-2" d="M72.28,78.58l7-8.26c.86-1,1.7-2,2.59-3a1.33,1.33,0,0,1,.81-.4c1,0,2,0,3,0,.6,3.9,1.2,7.76,1.8,11.67H84.28c-.44-3-.86-5.87-1.32-9l-3.3,4.14H82.5l.15,1.81c-1.07,0-2.1.08-3.13.14A3,3,0,0,0,77,77.13a2.66,2.66,0,0,1-3,1.46A11.58,11.58,0,0,0,72.28,78.58Z"/><path class="cls-2" d="M53.4,78.55H50.17l-1.31-9-3.3,4.14h2.82l.19,1.88c-.8,0-1.56,0-2.32,0a4,4,0,0,0-3.74,1.92c-.26.41-.67.94-1.07,1a22.24,22.24,0,0,1-3.18,0c.13-.2.2-.34.29-.45,3.06-3.62,6.12-7.22,9.17-10.84a1,1,0,0,1,.89-.42c1,0,2,0,3,0Z"/><path class="cls-2" d="M37.87,76.21c-.63.76-1.17,1.43-1.74,2.09a.84.84,0,0,1-.43.22,12.2,12.2,0,0,1-6.15-.12c-2.61-.78-3.53-2.61-2.71-5.34a8.29,8.29,0,0,1,4.08-4.89A12.16,12.16,0,0,1,40.12,67a9.4,9.4,0,0,1,1,.36c-.53.6-1,1.16-1.49,1.67a.69.69,0,0,1-.63,0,6.94,6.94,0,0,0-8.32,2.8,5.46,5.46,0,0,0-.64,1.8c-.28,1.63.76,2.82,2.57,3a13,13,0,0,0,4.81-.41Z"/><path class="cls-2" d="M68.24,67c-.44.55-.85,1.1-1.31,1.61a1,1,0,0,1-.63.28q-1.27,0-2.55,0a.68.68,0,0,0-.8.56c-1,2.88-2,5.75-3,8.64a.62.62,0,0,1-.7.51c-.86,0-1.73,0-2.68,0l3.35-9.67h-4.7c.23-.68.41-1.25.63-1.8a.47.47,0,0,1,.37-.22c4,0,7.93,0,11.9,0Z"/><path class="cls-2" d="M66.53,78.58c.53-1.52,1-3,1.54-4.4.8-2.27,1.61-4.53,2.39-6.8.13-.37.29-.53.7-.51.87,0,1.74,0,2.7,0l-1.23,3.49c-.9,2.56-1.81,5.12-2.69,7.68-.14.4-.31.56-.75.54C68.33,78.55,67.46,78.58,66.53,78.58Z"/></g></g></svg>