<svg xmlns="http://www.w3.org/2000/svg" xmlns:xlink="http://www.w3.org/1999/xlink" viewBox="0 0 100 100"><defs><style>.cls-1{fill:#fff;}.cls-2{fill:#1b1b1b;}.cls-3{mask:url(#mask);}.cls-4{mask:url(#mask-2);}</style><mask id="mask" x="12.45" y="12.5" width="53.38" height="57.28" maskUnits="userSpaceOnUse"><g id="mask0_201_348" data-name="mask0 201 348"><path class="cls-1" d="M12.45,12.5H65.82V69.78H12.45Z"/></g></mask><mask id="mask-2" x="34.18" y="30.24" width="53.38" height="57.26" maskUnits="userSpaceOnUse"><g id="mask1_201_348" data-name="mask1 201 348"><path class="cls-1" d="M34.18,30.24H87.55V87.5H34.18Z"/></g></mask></defs><g id="Layer_2" data-name="Layer 2"><g id="Background_Layer" data-name="Background Layer"><rect class="cls-2" width="100" height="100" rx="15"/></g><g id="Icons"><g class="cls-3"><path class="cls-1" d="M51,12.5a42.8,42.8,0,0,0-7.77.72c-7.6,1.33-9,4.1-9,9.22v7.82H52v3.95h-27c-5.2,0-9.76,2.45-11.2,8.33a33.09,33.09,0,0,0,0,18c1.29,5.25,4.14,9.19,9.35,9.19h7.17V59.66c0-5.85,5.3-11.63,11.38-11.63H55.92c5,0,9.87-3.68,9.87-8.64V22.44c0-4.81-3.47-8.41-8.32-9.22A34,34,0,0,0,51,12.5Zm-9.84,7.89a3,3,0,0,1,0,5.93,3,3,0,1,1,0-5.93Z"/></g><g class="cls-4"><path class="cls-1" d="M49,87.5a42.8,42.8,0,0,0,7.77-.72c7.6-1.33,9-4.1,9-9.22V69.74H48V65.79h27c5.2,0,9.76-2.45,11.2-8.33a33.09,33.09,0,0,0,0-18c-1.29-5.25-4.14-9.19-9.35-9.19H69.74V40.34c0,5.85-5.3,11.63-11.38,11.63H44.08c-5,0-9.88,3.68-9.88,8.64v17c0,4.81,3.48,8.41,8.33,9.22A34,34,0,0,0,49,87.5Zm9.84-7.89a3,3,0,0,1,0-5.93,2.94,2.94,0,0,1,3,3A3,3,0,0,1,58.88,79.61Z"/></g></g></g></svg>