<svg xmlns="http://www.w3.org/2000/svg" viewBox="0 0 100 100"><defs><style>.cls-1{fill:#1f1f1f;}.cls-2{fill:#fff;}</style></defs><g id="Layer_2" data-name="Layer 2"><g id="Background_Layer" data-name="Background Layer"><rect class="cls-1" width="100" height="100" rx="15"/></g><g id="Icons"><path class="cls-2" d="M34.23,65.53C45.27,76.57,58.49,85,69.09,85a16.14,16.14,0,0,0,12.18-5.2c2.73-3.08,3.67-5.34,3.67-7.37,0-1.61-1-3.05-3.43-4.78L72.34,61.1c-2.26-1.62-3.28-1.91-4.63-1.91a7.73,7.73,0,0,0-4.09,1.26l-6,3.32a2.73,2.73,0,0,1-1.55.44,4.73,4.73,0,0,1-1.88-.44c-2.88-1.35-6.9-4.46-10.45-8a43.12,43.12,0,0,1-7.76-10,4,4,0,0,1-.41-1.55,3.23,3.23,0,0,1,.56-1.44l3.52-6a6.67,6.67,0,0,0,1.24-3.82,8.43,8.43,0,0,0-1.91-5l-6.28-8.81C30.94,16.53,29.56,15,27.54,15,25,15,22,16.94,19.84,19a16.17,16.17,0,0,0-4.78,11.92C15.06,41.63,23.28,54.58,34.23,65.53Z"/></g></g></svg>