<svg xmlns="http://www.w3.org/2000/svg" viewBox="0 0 200 100"><defs><style>.cls-1{fill:#1f1f1f;}.cls-2{fill:#fff;}</style></defs><g id="Layer_2" data-name="Layer 2"><g id="Background_Layer" data-name="Background Layer"><rect class="cls-1" width="200" height="100" rx="10"/></g><g id="Icons"><g id="Layer_1-2" data-name="Layer 1-2"><path class="cls-2" d="M55,63.64h6.79c5.75,0,5.73,9.65,0,9.65H57v5.88H55Zm6.79,7.65c3.09,0,3.26-5.68,0-5.68H57v5.68Z"/><path class="cls-2" d="M68.35,63.64H75c6.1,0,5.94,9.27.62,9.56l4.17,6H77.54l-4-5.88H70.33v5.88h-2Zm6.39,7.65c3.71,0,3.53-5.68.29-5.68h-4.7v5.68Z"/><path class="cls-2" d="M81.76,74.8l0-6.79a4.33,4.33,0,0,1,4.35-4.37h2.35a4.4,4.4,0,0,1,4.37,4.3v6.88a4.36,4.36,0,0,1-4.37,4.35H86.13A4.37,4.37,0,0,1,81.76,74.8Zm6.72,2.39A2.4,2.4,0,0,0,90.9,74.8V68.05a2.45,2.45,0,0,0-2.42-2.44H86.13a2.41,2.41,0,0,0-2.4,2.4V74.8a2.39,2.39,0,0,0,2.4,2.39Z"/><path class="cls-2" d="M95.08,74.8h2a2.41,2.41,0,0,0,2.4,2.39h2.35a2.4,2.4,0,0,0,2.39-2.39V63.64h2V74.8a4.39,4.39,0,0,1-4.37,4.37H99.45A4.38,4.38,0,0,1,95.08,74.8Z"/><path class="cls-2" d="M108.39,63.64h10.38v2h-8.4V70.4h6.16v2h-6.16v4.79h8.4v2h-10.4Z"/><path class="cls-2" d="M120.71,74.8V68a4.37,4.37,0,0,1,4.37-4.37h2.35A4.39,4.39,0,0,1,131.8,68h-2a2.42,2.42,0,0,0-2.4-2.4h-2.35a2.42,2.42,0,0,0-2.4,2.4V74.8a2.41,2.41,0,0,0,2.4,2.39h2.35a2.41,2.41,0,0,0,2.4-2.39h2a4.38,4.38,0,0,1-4.37,4.37h-2.35A4.39,4.39,0,0,1,120.71,74.8Z"/><path class="cls-2" d="M138.51,65.61H134v-2H145v2h-4.49V79.17h-2Z"/><path class="cls-2" d="M55,20.83H69.33c14.09,0,13.51,20.42,2.43,21.39l8.8,12.64H74.24L66.07,42.51H60.43V54.86H55ZM68.84,37.07c7,0,6.56-10.79.49-10.79h-8.9V37.07Z"/><polygon class="cls-2" points="85.53 28.13 85.53 54.86 90.97 54.86 90.97 36.32 85.53 28.13"/><polygon class="cls-2" points="109.83 47.57 109.83 20.83 104.39 20.83 104.39 39.4 109.83 47.57"/><polygon class="cls-2" points="89.66 20.83 85.53 20.83 85.53 24.63 90.97 32.83 90.97 32.79 105.6 54.86 109.83 54.86 109.83 51.12 89.66 20.83"/><rect class="cls-2" x="139.52" y="20.83" width="5.44" height="34.03"/><polygon class="cls-2" points="114.81 54.86 131.82 37.85 114.81 20.83 122.51 20.83 139.52 37.85 122.51 54.86 114.81 54.86"/><path class="cls-2" d="M153.47,20.83v34h34v-34ZM181,38.66,163.39,48.8A.94.94,0,0,1,162,48V27.71a.94.94,0,0,1,1.41-.82L181,37A.94.94,0,0,1,181,38.66Z"/><path class="cls-2" d="M12.5,20.83v34h34v-34ZM27.08,50H22.22V25.69h4.86Zm9.73,0H31.94V25.69h4.87Z"/></g></g></g></svg>