<svg xmlns="http://www.w3.org/2000/svg" viewBox="0 0 100 100"><defs><style>.cls-1{fill:#1b1b1b;}.cls-2,.cls-3{fill:#fff;}.cls-2{fill-opacity:0;}</style></defs><g id="Layer_2" data-name="Layer 2"><g id="Background_Layer" data-name="Background Layer"><rect class="cls-1" width="100" height="100" rx="15"/></g><g id="Icons"><rect class="cls-2" x="10" y="21.52" width="80" height="56.95"/><path class="cls-3" d="M50,54.08a4.89,4.89,0,0,0,3.32-1.45L86.47,23.29a10.93,10.93,0,0,0-6.58-1.74H20.08a11,11,0,0,0-6.58,1.74L46.68,52.63A4.83,4.83,0,0,0,50,54.08ZM11,73.58,35.9,48.74l-25-22.08A10.4,10.4,0,0,0,10,31.53V68.47A11,11,0,0,0,11,73.58Zm8.27,4.9H80.69A9.56,9.56,0,0,0,86.32,77L60.89,51.54l-5,4.44A8.91,8.91,0,0,1,50,58.46,8.85,8.85,0,0,1,44.12,56l-5-4.44L13.66,77A9.6,9.6,0,0,0,19.31,78.48ZM89,73.58a11,11,0,0,0,1-5.11V31.53a10.32,10.32,0,0,0-1-4.87l-25,22.08Z"/></g></g></svg>