<svg xmlns="http://www.w3.org/2000/svg" viewBox="0 0 100 100"><defs><style>.cls-1{fill:#1b1b1b;}.cls-2{fill:#fff;}</style></defs><g id="Layer_2" data-name="Layer 2"><g id="Background_Layer" data-name="Background Layer"><rect class="cls-1" width="100" height="100" rx="15"/></g><g id="Icons"><path class="cls-2" d="M24.39,42.21H9.61a.59.59,0,0,0-.45.2l-.87,1.12c-.08.12,0,.21.12.21l15,0a.65.65,0,0,0,.41-.25l.7-1.08C24.6,42.33,24.55,42.21,24.39,42.21Z"/><path class="cls-2" d="M22.24,46H3.37a.61.61,0,0,0-.46.21L2,47.34c-.08.12,0,.2.13.2l19.57,0a.35.35,0,0,0,.37-.24l.33-1A.19.19,0,0,0,22.24,46Z"/><path class="cls-2" d="M21.33,49.82H13.05a.54.54,0,0,0-.41.25l-.58,1c-.09.13,0,.25.12.25l9,0a.3.3,0,0,0,.29-.29l.08-1C21.57,50,21.49,49.82,21.33,49.82Z"/><path class="cls-2" d="M86.84,46.18A12.89,12.89,0,0,0,81,37c-3.6-2.44-7.57-2.86-11.79-2.11a17.35,17.35,0,0,0-11.59,6.91,17.73,17.73,0,0,0-2.86,5.38H41.44a1.1,1.1,0,0,0-1,.66c-.58,1.08-1.58,3.23-2.12,4.51-.29.71-.08,1.25.79,1.25h8c-.42.57-.75,1.07-1.12,1.53a7.64,7.64,0,0,1-7,2.73,6.5,6.5,0,0,1-5.59-6.5,8.81,8.81,0,0,1,4.22-7.86A7.18,7.18,0,0,1,45,42.83a5.62,5.62,0,0,1,2,1.57c.53.62.57.58,1.2.41,2.56-.66,4.34-1.16,7-1.82.49-.12.66-.33.41-.7a13,13,0,0,0-4.8-5.84,14.26,14.26,0,0,0-11-2A18.31,18.31,0,0,0,28.2,41.59a16.22,16.22,0,0,0-3.52,12.12,13,13,0,0,0,5.25,9.19,14.69,14.69,0,0,0,11.14,2.73A18.24,18.24,0,0,0,54.6,55.79a13.06,13.06,0,0,0,4.14,6.45,15.53,15.53,0,0,0,10.1,3.64c1.07-.13,2.19-.17,3.31-.37a19,19,0,0,0,9.93-5.3A16,16,0,0,0,86.84,46.18ZM73.43,57.06a7.6,7.6,0,0,1-6.75.25,6.81,6.81,0,0,1-3.8-7.82,9,9,0,0,1,7.24-7.2,6.82,6.82,0,0,1,8.44,5.5,10.3,10.3,0,0,1,.13,1.37A9.05,9.05,0,0,1,73.43,57.06Z"/></g></g></svg>