<svg xmlns="http://www.w3.org/2000/svg" viewBox="0 0 100 100"><defs><style>.cls-1{fill:#1b1b1b;}.cls-2{fill:#fff;}</style></defs><g id="Layer_2" data-name="Layer 2"><g id="Background_Layer" data-name="Background Layer"><rect class="cls-1" width="100" height="100" rx="15"/></g><g id="Icons"><path class="cls-2" d="M33.11,66.64c11.82,11.83,26,20.86,37.34,20.86a17.28,17.28,0,0,0,13-5.57c2.93-3.3,3.94-5.72,3.94-7.89,0-1.73-1.07-3.28-3.68-5.13l-9.82-7c-2.42-1.73-3.52-2-5-2A8.19,8.19,0,0,0,64.6,61.2l-6.42,3.55a3,3,0,0,1-1.67.48,5.1,5.1,0,0,1-2-.48c-3.08-1.44-7.39-4.78-11.2-8.62A46.21,46.21,0,0,1,35,45.38a4.17,4.17,0,0,1-.44-1.67,3.4,3.4,0,0,1,.6-1.54l3.78-6.45a7.2,7.2,0,0,0,1.32-4.09,9,9,0,0,0-2-5.35l-6.73-9.44c-1.89-2.7-3.37-4.34-5.54-4.34-2.7,0-5.94,2.08-8.24,4.31a17.29,17.29,0,0,0-5.13,12.77C12.56,41,21.37,54.91,33.11,66.64Z"/></g></g></svg>