<svg xmlns="http://www.w3.org/2000/svg" viewBox="0 0 100 100"><defs><style>.cls-1{fill:#1b1b1b;}.cls-2{fill:#fffefe;}.cls-3{fill:#fff;}</style></defs><g id="Layer_2" data-name="Layer 2"><g id="Background_Layer" data-name="Background Layer"><rect class="cls-1" width="100" height="100" rx="15"/></g><g id="Icons"><path class="cls-2" d="M85,26.44l6,0L91,87.5H20.39a4.27,4.27,0,0,1-4-3.41,43,43,0,0,1-.15-6.62c2.06-1.21,6.2-3.69,6.2-3.69H85l0-47.34Z"/><path class="cls-3" d="M80.25,14c1.46.09,3.07,1.12,3.15,2.63.08,1.9.07,3.86,0,5.75,0,1.34,0,2.72,0,4.06,0,13.64,0,39.38,0,45.84l-52.86,0-6.67,0c0-7.35-.06-40-.05-58.29H80.25m0-1.5H22.4v.09c0,20.4.05,61.19.05,61.19l8.17,0,54.36,0s0-31.56,0-47.34c0-3.29.09-6.59,0-9.87-.12-2.35-2.38-4-4.6-4.07Z"/><path class="cls-2" d="M22.39,14.25l0,57.8-.76.44L10.53,79.12V21.43l11.86-7.18m1.5-1.75h-1.5L9,20.58V81.76l13.41-8,1.49-.86,0-60.42Z"/><path class="cls-2" d="M44.43,26l21.65,0v6.26L53,32.21v8l11,0v5.91H53V59.77l-8.61,0,0-33.75"/></g></g></svg>