<svg xmlns="http://www.w3.org/2000/svg" xmlns:xlink="http://www.w3.org/1999/xlink" viewBox="0 0 100 100"><defs><style>.cls-1{fill:#fff;}.cls-2{fill:#1b1b1b;}.cls-3{mask:url(#mask);}</style><mask id="mask" x="16.43" y="13.5" width="67.13" height="75" maskUnits="userSpaceOnUse"><g id="mask0_201_43" data-name="mask0 201 43"><path class="cls-1" d="M16.43,13.5H83.57v75H16.43Z"/></g></mask></defs><g id="Layer_2" data-name="Layer 2"><g id="Icons"><rect class="cls-2" width="100" height="100" rx="15"/><g class="cls-3"><path class="cls-1" d="M83.56,13.5H16.44l5.93,67.11L50,88.5l27.63-7.89Z"/></g><polygon class="cls-2" points="50 29.29 50 29.29 31.84 29.29 32.43 37.19 50 37.19 50 37.19 59.67 37.19 59.08 45.08 50 45.08 50 45.08 40.92 45.08 41.32 52.98 50 52.98 50 52.98 58.69 52.98 58.09 61.86 50 64.62 41.91 61.86 41.71 56.92 33.81 56.92 34.41 67.78 50 72.91 50 72.91 50 72.91 50 72.91 50 72.91 65.59 67.78 66.98 45.08 67.96 29.29 50 29.29"/></g></g></svg>