<svg xmlns="http://www.w3.org/2000/svg" viewBox="0 0 100 100"><defs><style>.cls-1{fill:#1b1b1b;}.cls-2{fill:#fff;}</style></defs><g id="Layer_2" data-name="Layer 2"><g id="Background_Layer" data-name="Background Layer"><rect class="cls-1" width="100" height="100" rx="15"/></g><g id="Icons"><path class="cls-2" d="M38.56,26.54C51.63,26.54,59,32.66,59,42.92c0,12-10,16.79-19.33,16.79H33.33V72.64H20.54V26.54h18ZM33.33,37.48V48.76H39c3.92,0,6.68-1.58,6.68-5.58,0-3.65-2.34-5.71-6.41-5.71H33.33Z"/><path class="cls-2" d="M76.83,36.1a22.48,22.48,0,0,1,6.12.69v9.36a18.11,18.11,0,0,0-3.71-.34A14.63,14.63,0,0,0,74,46.5V72.64H61.9V39.14a34.31,34.31,0,0,1,14.93-3Z"/></g></g></svg>