<svg xmlns="http://www.w3.org/2000/svg" viewBox="0 0 100 100"><defs><style>.cls-1{fill:#1b1b1b;}.cls-2{fill:#fff;}</style></defs><g id="Layer_2" data-name="Layer 2"><g id="Background_Layer" data-name="Background Layer"><rect class="cls-1" width="100" height="100" rx="15"/></g><g id="Icons"><path class="cls-2" d="M34.92,26.54c13.07,0,20.43,6.12,20.43,16.38,0,12-10,16.79-19.33,16.79H29.69V72.64H16.89V26.54ZM29.69,37.48V48.76h5.64c3.92,0,6.68-1.58,6.68-5.58,0-3.65-2.34-5.71-6.4-5.71H29.69Z"/><path class="cls-2" d="M58,70.37,58,59.71a24.92,24.92,0,0,0,12.25,3.91c2.41,0,3.51-.68,3.51-1.92s-1.51-1.93-4.4-2.83c-5.58-1.65-11.7-3.92-11.7-11.21s6.12-11.57,15-11.57A26.27,26.27,0,0,1,83.36,38l-.07,10.19A24.06,24.06,0,0,0,73,45.46c-2.27,0-3.17.68-3.17,1.72,0,1.24,1.11,1.58,4.4,2.61,6.4,1.93,11.77,4,11.77,11.49s-5.85,12-15,12A26.92,26.92,0,0,1,58,70.36Z"/></g></g></svg>