<svg xmlns="http://www.w3.org/2000/svg" xmlns:xlink="http://www.w3.org/1999/xlink" viewBox="0 0 100 100"><defs><style>.cls-1{fill:#fff;}.cls-2{fill:#1b1b1b;}.cls-3{mask:url(#mask);}</style><mask id="mask" x="16.92" y="13.47" width="66.15" height="75.07" maskUnits="userSpaceOnUse"><g id="mask0_201_605" data-name="mask0 201 605"><path class="cls-1" d="M16.94,13.47H83.06V88.53H16.94Z"/></g></mask></defs><g id="Layer_2" data-name="Layer 2"><g id="Background_Layer" data-name="Background Layer"><rect class="cls-2" width="100" height="100" rx="15"/></g><g id="Icons"><g class="cls-3"><path class="cls-1" d="M22.94,81l-6-67.5H83.08l-6,67.5L50,88.5Z"/></g><polygon class="cls-2" points="50 27.3 49.97 27.3 49.97 27.3 29.23 27.3 31.47 52.34 49.97 52.34 50 52.34 60.17 52.34 59.23 63.07 50 65.56 50 65.53 49.97 65.54 40.74 63.05 40.16 56.45 31.84 56.45 33 69.45 49.96 74.14 50 74.13 50 74.17 66.97 69.47 69.25 44.05 50 44.05 50 44.06 39.04 44.06 38.28 35.58 50 35.58 50 35.58 69.97 35.58 70.14 33.72 70.52 29.52 70.72 27.3 50 27.3"/></g></g></svg>