<svg xmlns="http://www.w3.org/2000/svg" xmlns:xlink="http://www.w3.org/1999/xlink" viewBox="0 0 100 100"><defs><style>.cls-1{fill:#fff;}.cls-2{fill:#1b1b1b;}.cls-3{mask:url(#mask);}.cls-4{fill:#000001;}</style><mask id="mask" x="12.5" y="12.5" width="75" height="75" maskUnits="userSpaceOnUse"><g id="mask0_201_78" data-name="mask0 201 78"><path class="cls-1" d="M12.5,12.5h75v75h-75Z"/></g></mask></defs><g id="Layer_2" data-name="Layer 2"><g id="Icons"><rect class="cls-2" width="100" height="100" rx="15"/><g class="cls-3"><path class="cls-1" d="M12.5,12.5h75v75h-75Z"/></g><path class="cls-4" d="M61.54,68.64c1.44,2.34,3,4.58,6.32,4.58,2.79,0,4.25-1.38,4.25-3.3,0-2.29-1.51-3.11-4.57-4.44l-1.69-.72C61,62.7,57.78,60.12,57.78,54.68c0-5,3.84-8.85,9.85-8.85,4.27,0,7.35,1.49,9.56,5.37L72,54.54c-1.15-2.06-2.39-2.87-4.32-2.87a2.92,2.92,0,0,0-3.22,2.87c0,2,1.25,2.82,4.13,4.07l1.68.71c5.72,2.44,9,4.93,9,10.52,0,6-4.76,9.33-11.15,9.33s-9.8-3.14-11.77-7Zm-24.14.17c1.05,1.89,2.66,3.34,5,3.34s3.47-.87,3.47-4.26V45.83h7V69c0,7-4.07,10.21-10,10.21a12.2,12.2,0,0,1-10.83-7Z"/></g></g></svg>