<svg xmlns="http://www.w3.org/2000/svg" viewBox="0 0 100 100"><defs><style>.cls-1{fill:#1b1b1b;}.cls-2{fill:#fff;}</style></defs><g id="Layer_2" data-name="Layer 2"><g id="Background_Layer" data-name="Background Layer"><rect class="cls-1" width="100" height="100" rx="15"/></g><g id="Icons"><path class="cls-2" d="M12.5,12.5v75h75v-75ZM52.78,69c0,7-4.07,10.21-10,10.21a12.2,12.2,0,0,1-10.83-7l5.46-3.34c1.05,1.89,2.66,3.34,5,3.34s3.47-.87,3.47-4.26V45.83h7ZM68,79.17c-6.25,0-9.8-3.14-11.77-7l5.29-3.51c1.44,2.34,3,4.58,6.32,4.58,2.79,0,4.25-1.38,4.25-3.3,0-2.29-1.51-3.11-4.57-4.44l-1.69-.72C61,62.7,57.78,60.12,57.78,54.68c0-5,3.84-8.85,9.84-8.85,4.28,0,7.36,1.49,9.57,5.37L72,54.54c-1.15-2.06-2.39-2.87-4.33-2.87a2.92,2.92,0,0,0-3.21,2.87c0,2,1.25,2.82,4.13,4.07l1.68.71c5.72,2.44,9,4.93,9,10.52C79.17,75.86,74.41,79.17,68,79.17Z"/></g></g></svg>