<svg xmlns="http://www.w3.org/2000/svg" viewBox="0 0 100 100"><defs><style>.cls-1{fill:#1b1b1b;}.cls-2{fill:#fff;}</style></defs><g id="Layer_2" data-name="Layer 2"><g id="Background_Layer" data-name="Background Layer"><rect class="cls-1" width="100" height="100" rx="15"/></g><g id="Icons"><path class="cls-2" d="M86,13.93v62.9H23.37V13.93H86m1.5-1.5H21.87v65.9H87.5V12.43Z"/><polygon class="cls-2" points="21.86 78.33 21.86 21.89 12.5 21.89 12.5 87.57 78.17 87.57 78.17 78.33 21.86 78.33"/><polygon class="cls-2" points="48.44 67.29 42.92 67.29 35.14 51.07 35.14 67.29 29.62 67.29 29.62 40.59 35.14 40.59 42.92 56.74 42.92 40.59 48.44 40.59 48.44 67.29"/><polygon class="cls-2" points="71.08 40.59 64.43 40.59 61 48.63 57.56 40.59 50.91 40.59 57.1 53.94 50.91 67.29 57.56 67.29 61 59.25 64.43 67.29 71.08 67.29 64.89 53.94 71.08 40.59"/></g></g></svg>