<svg xmlns="http://www.w3.org/2000/svg" viewBox="0 0 100 100"><defs><style>.cls-1{fill:#1b1b1b;}.cls-2{fill:#fff;}</style></defs><g id="Layer_2" data-name="Layer 2"><g id="Icons"><rect class="cls-1" width="100" height="100" rx="15"/><path id="bg" class="cls-2" d="M12.5,12.5h63a12,12,0,0,1,12,12v51a12,12,0,0,1-12,12h-51a12,12,0,0,1-12-12Z"/><path id="fg" class="cls-1" d="M39.36,81.5c-4.82,0-7.79-2.72-7.74-7.71V61.16a7.33,7.33,0,0,1,2.23-5.77c2.66-2.56,8.84-2.72,11.44,0,1.61,1.42,2.21,4.31,2.07,7H41.83c0-1.06,0-2.67-.64-3.27a2.25,2.25,0,0,0-3.51.17,5.72,5.72,0,0,0-.53,2.75v11c0,2.3.8,3.47,2.4,3.49a2,2,0,0,0,1.7-.81,5.28,5.28,0,0,0,.58-3.1h5.53c.38,5.25-2.72,8.94-8,8.87Zm17.55,0c-5.34.07-7.73-3.72-7.58-8.87h5.22c-.14,2.24.63,4.29,2.48,4.14A1.91,1.91,0,0,0,58.77,76c.63-1,.75-3.67-.16-4.73-.64-1-2.93-1.91-4.14-2.52a9,9,0,0,1-3.73-2.94c-1.71-2.52-1.55-8.06.85-10.3,2.34-2.77,8.45-2.9,10.79-.06,1.44,1.46,2.07,4.34,1.95,7h-5A7.89,7.89,0,0,0,58.82,59a1.73,1.73,0,0,0-1.68-.81c-1.47,0-2.2.88-2.2,2.63s.74,2.63,2.43,3.41c2.2.85,5,2.31,6,4.07,3,5.37.94,13.56-6.46,13.25Zm16.86,0c-5.34.07-7.73-3.72-7.58-8.87h5.22c-.15,2.24.63,4.29,2.47,4.14A1.89,1.89,0,0,0,75.62,76c.64-1,.76-3.67-.15-4.73-.64-1-2.93-1.91-4.14-2.52a8.92,8.92,0,0,1-3.73-2.94c-1.71-2.52-1.56-8.06.85-10.3,2.34-2.77,8.45-2.9,10.79-.06,1.44,1.46,2.07,4.34,2,7h-5A7.9,7.9,0,0,0,75.68,59,1.75,1.75,0,0,0,74,58.14c-1.47,0-2.2.88-2.2,2.63s.74,2.63,2.43,3.41c2.19.85,5,2.31,6,4.07,3,5.37,1,13.56-6.45,13.25Z"/></g></g></svg>