<svg xmlns="http://www.w3.org/2000/svg" viewBox="0 0 100 100"><defs><style>.cls-1{fill:#1b1b1b;}.cls-2{fill:#fff;}</style></defs><g id="Layer_2" data-name="Layer 2"><g id="Background_Layer" data-name="Background Layer"><rect class="cls-1" width="100" height="100" rx="15"/></g><g id="Icons"><path class="cls-2" d="M85,0H15A15,15,0,0,0,0,15V85a15,15,0,0,0,15,15H85a15,15,0,0,0,15-15V15A15,15,0,0,0,85,0ZM95,85A10,10,0,0,1,85,95H15A10,10,0,0,1,5,85V15A10,10,0,0,1,15,5H85A10,10,0,0,1,95,15Z"/><path class="cls-2" d="M50,20c-7.47,0-13.55,5.75-13.55,12.8,0,6.87,6.36,14.65,12.3,19.65A2,2,0,0,0,50,52.9a1.93,1.93,0,0,0,1.24-.45c5.95-5,12.31-12.78,12.31-19.65C63.55,25.75,57.47,20,50,20ZM31.47,52.92a17.37,17.37,0,0,0-8.1,1.94,12.44,12.44,0,0,0-5.83,7.65A14,14,0,0,0,30.88,80a12.36,12.36,0,0,0,6.17-1.63c6-3.44,9.61-12.85,11-20.51a1.93,1.93,0,0,0-1.24-2.16A44.27,44.27,0,0,0,31.47,52.92Zm37.06,0A44.21,44.21,0,0,0,53.22,55.7,1.94,1.94,0,0,0,52,57.86c1.37,7.66,5,17.08,11,20.51A12.31,12.31,0,0,0,69.12,80,14,14,0,0,0,82.46,62.51a12.39,12.39,0,0,0-5.84-7.65A17.33,17.33,0,0,0,68.53,52.92Z"/></g></g></svg>