<svg xmlns="http://www.w3.org/2000/svg" viewBox="0 0 100 100"><defs><style>.cls-1{fill:#1b1b1b;}.cls-2{fill:#fff;}</style></defs><g id="Layer_2" data-name="Layer 2"><g id="Background_Layer" data-name="Background Layer"><rect class="cls-1" width="100" height="100" rx="15"/></g><g id="Icons"><path class="cls-2" d="M78.68,34.85h0Z"/><path class="cls-2" d="M78.12,34.85H77.07a7.92,7.92,0,0,1-7.55-5.67l-2.23-7.6a7.88,7.88,0,0,0-7.57-5.67H32c-7.82,0-12.5,10.32-15.63,20.65-3.7,12.23-8.54,28.59,5.47,28.59h1.88a7.91,7.91,0,0,1,7.58,5.7l2.18,7.54a7.9,7.9,0,0,0,7.37,5.69c1.7-.07,27.07,0,27.07,0,7.82,0,12.5-10.32,15.63-20.65C87.29,51.21,92.13,34.85,78.12,34.85ZM68,82.59H46.78l.22-.3c1.92-2.71,3.14-6.82,4.54-11.57l.14-.47c2.86-9.63,6.54-22.47,8.48-29.27a6.42,6.42,0,0,1,6.15-4.63H78.12c3,0,5.11.81,6.36,2.48,3.54,4.78.15,16-2.33,24.18C78.16,76.19,73.52,82.59,68,82.59ZM21.88,63.65c-3,0-5.12-.82-6.36-2.49-3.54-4.78-.15-16,2.33-24.17,4-13.18,8.63-19.58,14.19-19.58H53.22l-.22.3c-1.92,2.71-3.14,6.81-4.54,11.57l-.14.47C45.45,39.42,41.78,52.23,39.84,59a6.43,6.43,0,0,1-6.15,4.64Zm10.35,1.5h1.46a7.9,7.9,0,0,0,7.59-5.73c1.39-4.85,3.48-12.13,5.56-19.29a7.87,7.87,0,0,1,7.42-5.28H66.31a7.89,7.89,0,0,0-7.59,5.72c-1.38,4.83-3.46,12.07-5.53,19.19a7.86,7.86,0,0,1-7.46,5.39Z"/></g></g></svg>