<svg xmlns="http://www.w3.org/2000/svg" viewBox="0 0 100 100"><defs><style>.cls-1{fill:#1f1f1f;}.cls-2{fill:#fff;}</style></defs><g id="Layer_2" data-name="Layer 2"><g id="Background_Layer" data-name="Background Layer"><rect class="cls-1" width="100" height="100" rx="15"/></g><g id="Icons"><path class="cls-2" d="M31,22.19a8.57,8.57,0,0,0-1.45-4.79,8.63,8.63,0,0,0-13.27-1.34,8.63,8.63,0,0,0,6,14.75,8.27,8.27,0,0,0,3.33-.61,8.48,8.48,0,0,0,4.72-4.68A8.65,8.65,0,0,0,31,22.19Z"/><rect class="cls-2" x="14.77" y="37.43" width="15.03" height="47.76"/><path class="cls-2" d="M38.83,37.47V85.23h15V59.33c0-6.9,4.37-10.26,8.83-10.26,4.22,0,7.49,2.37,7.49,10.07V85.23h15V55.69c0-14.59-9.06-19.57-17.45-19.57-7.76,0-12.84,5-14.29,8h-.2V37.47Z"/></g></g></svg>