<svg xmlns="http://www.w3.org/2000/svg" viewBox="0 0 100 100"><defs><style>.cls-1,.cls-3{fill:#1b1b1b;}.cls-2{fill:#fff;}.cls-2,.cls-3{fill-rule:evenodd;}</style></defs><g id="Layer_2" data-name="Layer 2"><g id="Background_Layer" data-name="Background Layer"><rect class="cls-1" width="100" height="100" rx="15"/></g><g id="Icons"><path class="cls-2" d="M48.06,13.55a3.94,3.94,0,0,1,3.88,0L81.73,30.27a3.78,3.78,0,0,1,1.94,3.28V67a3.77,3.77,0,0,1-1.94,3.28L51.94,87a3.94,3.94,0,0,1-3.88,0L18.27,70.27A3.76,3.76,0,0,1,16.33,67V33.55a3.78,3.78,0,0,1,1.94-3.28Z"/><path class="cls-2" d="M16.87,68.17a3,3,0,0,1-.54-2V32.88a3.73,3.73,0,0,1,1.94-3.25L48,13a4.27,4.27,0,0,1,4,0c5.93,3.32,23.7,13.22,29.62,16.54a3.72,3.72,0,0,1,1.17,1Z"/><path class="cls-3" d="M50,25.45A24.82,24.82,0,1,1,25.19,50.27,24.83,24.83,0,0,1,50,25.45Zm0,12.41A12.41,12.41,0,1,1,37.59,50.27,12.41,12.41,0,0,1,50,37.86Z"/><path class="cls-2" d="M82.76,31.13a4.11,4.11,0,0,1,.9,3.17c0,6.72-.06,25.86,0,32.59a3.82,3.82,0,0,1-.57,2L49.28,50.27Z"/><polygon class="cls-1" points="65.95 44.95 62.41 44.95 62.41 48.5 58.86 48.5 58.86 52.04 62.41 52.04 62.41 55.59 65.95 55.59 65.95 52.04 69.5 52.04 69.5 48.5 65.95 48.5 65.95 44.95"/><polygon class="cls-1" points="81.9 48.5 78.36 48.5 78.36 44.95 74.81 44.95 74.81 48.5 71.27 48.5 71.27 52.04 74.81 52.04 74.81 55.59 78.36 55.59 78.36 52.04 81.9 52.04 81.9 48.5"/></g></g></svg>