<svg xmlns="http://www.w3.org/2000/svg" viewBox="0 0 283.46 283.46"><defs><style>.cls-1{fill:#fff;}</style></defs><g id="Layer_2" data-name="Layer 2"><g id="Layer_1-2" data-name="Layer 1"><path class="cls-1" d="M141.73,28.35A113.39,113.39,0,1,0,255.12,141.73,113.38,113.38,0,0,0,141.73,28.35Zm2.13,7.1a106.32,106.32,0,0,1,88.85,51.3l-6.4,3.7a7.07,7.07,0,0,0-1.25-.92L192.53,70.75a7.09,7.09,0,0,0-9.68,2.6L175.57,86h-1.63l-.82-1.41,7.28-12.61a7.09,7.09,0,0,0-2.6-9.68L145.28,43.47a6.87,6.87,0,0,0-1.42-.62Zm70.2,125.66L194.68,172.3v22.38H172.3l-11.19,19.38-19.38-11.19-19.38,11.19-11.19-19.38H88.79V172.3L69.41,161.11,80.6,141.73,69.41,122.35l19.38-11.19V88.79h22.37l11.19-19.38L141.73,80.6l19.38-11.19L172.3,88.79h22.38v22.37l19.38,11.19-11.19,19.38Zm-4.65-13.71h12.11a2.84,2.84,0,0,1,2.83,2.84V187.8a2.83,2.83,0,0,1-1.42,2.45L190.41,209a2.84,2.84,0,0,1-3.88-1l-6.05-10.48h17V173.94l20.42-11.79ZM103,197.51l-6,10.48a2.83,2.83,0,0,1-3.87,1L60.53,190.25a2.83,2.83,0,0,1-1.42-2.45V150.24A2.84,2.84,0,0,1,62,147.4h12.1l-8.51,14.75L86,173.94v23.57ZM74.05,136.06H62a2.84,2.84,0,0,1-2.84-2.83V95.67a2.85,2.85,0,0,1,1.42-2.46L93.06,74.43a2.84,2.84,0,0,1,3.87,1L103,86H86v23.58L65.54,121.32Zm143.88-14.74-20.42-11.79V86h-17l6.05-10.48a2.85,2.85,0,0,1,3.88-1l32.52,18.78a2.85,2.85,0,0,1,1.42,2.46v37.56a2.83,2.83,0,0,1-2.83,2.83H209.41ZM143.15,47.15l32.53,18.78a2.83,2.83,0,0,1,1,3.87l-6.05,10.48-8.51-14.74L141.73,77.32,121.32,65.54,112.8,80.28l-6-10.48a2.83,2.83,0,0,1,1-3.87l32.52-18.78A2.88,2.88,0,0,1,143.15,47.15Zm-3.54-11.7v7.4a6.65,6.65,0,0,0-1.42.62L105.66,62.25a7.08,7.08,0,0,0-2.59,9.68l7.28,12.61L109.53,86h-1.64l-7.28-12.6a7.09,7.09,0,0,0-9.68-2.6L58.41,89.53a7.07,7.07,0,0,0-1.25.92l-6.4-3.7A106.3,106.3,0,0,1,139.61,35.45Zm-91,55,6.4,3.7a7.27,7.27,0,0,0-.17,1.54v37.56A7.08,7.08,0,0,0,62,140.31H76.51l.81,1.42-.81,1.42H62a7.08,7.08,0,0,0-7.09,7.09V187.8a7.17,7.17,0,0,0,.17,1.53l-6.4,3.7A106.29,106.29,0,0,1,48.63,90.43Zm91,157.58a106.27,106.27,0,0,1-88.85-51.3l6.4-3.69a7,7,0,0,0,1.25.91l32.52,18.78a7.08,7.08,0,0,0,9.68-2.59l7.28-12.61h1.64l.82,1.42-7.28,12.61a7.08,7.08,0,0,0,2.59,9.68L138.19,240a7.83,7.83,0,0,0,1.42.62Zm.7-11.7-32.52-18.78a2.83,2.83,0,0,1-1-3.87l6-10.48,8.52,14.75,20.41-11.79,20.42,11.79,8.51-14.75,6.05,10.48a2.83,2.83,0,0,1-1,3.87l-32.53,18.78A2.83,2.83,0,0,1,140.31,236.31Zm3.55,11.7v-7.39a8.14,8.14,0,0,0,1.42-.62l32.52-18.78a7.1,7.1,0,0,0,2.6-9.68l-7.28-12.61.82-1.42h1.63l7.28,12.61a7.08,7.08,0,0,0,9.68,2.59l32.53-18.78a7,7,0,0,0,1.25-.91l6.4,3.69A106.3,106.3,0,0,1,143.86,248Zm84.57-58.68a6.59,6.59,0,0,0,.17-1.53V150.24a7.08,7.08,0,0,0-7.08-7.09H207l-.82-1.42.82-1.42h14.56a7.08,7.08,0,0,0,7.08-7.08V95.67a6.67,6.67,0,0,0-.17-1.54l6.4-3.7a106.29,106.29,0,0,1,0,102.6Z"/><g id="CIRCLE"><circle class="cls-1" cx="74.22" cy="102.76" r="5.31"/></g><g id="CIRCLE-2" data-name="CIRCLE"><circle class="cls-1" cx="74.22" cy="180.71" r="5.31"/></g><g id="CIRCLE-3" data-name="CIRCLE"><circle class="cls-1" cx="141.73" cy="219.68" r="5.31"/></g><g id="CIRCLE-4" data-name="CIRCLE"><circle class="cls-1" cx="209.24" cy="180.71" r="5.31"/></g><g id="CIRCLE-5" data-name="CIRCLE"><circle class="cls-1" cx="209.24" cy="102.76" r="5.31"/></g><g id="CIRCLE-6" data-name="CIRCLE"><circle class="cls-1" cx="141.73" cy="63.78" r="5.31"/></g><path class="cls-1" d="M141.73,0A141.73,141.73,0,1,0,283.46,141.73,141.74,141.74,0,0,0,141.73,0Zm0,269.29A127.56,127.56,0,1,1,269.29,141.73,127.56,127.56,0,0,1,141.73,269.29Z"/><g id="ARC"><path class="cls-1" d="M140.31,83.05v18.29a1.42,1.42,0,0,0,2.84,0V83.05l16.92-9.77,9.77,16.92L160.7,106a1.42,1.42,0,1,0,2.46,1.42l9.14-15.84h19.54v19.54L176,120.31a1.41,1.41,0,0,0,1.41,2.45l15.84-9.14,16.92,9.77-9.77,16.92H182.13a1.42,1.42,0,1,0,0,2.84h18.28l9.77,16.92-16.92,9.77-15.84-9.14a1.42,1.42,0,0,0-1.41,2.46l15.83,9.14v19.54H172.3L163.16,176a1.42,1.42,0,0,0-2.46,1.41l9.14,15.84-9.77,16.92-16.92-9.77V182.13a1.42,1.42,0,0,0-2.84,0v18.28l-16.92,9.77-9.77-16.92,9.14-15.84a1.41,1.41,0,1,0-2.45-1.41l-9.15,15.83H91.62V172.3l15.84-9.14A1.42,1.42,0,0,0,106,160.7L90.2,169.84l-16.92-9.77,9.77-16.92h18.29a1.42,1.42,0,1,0,0-2.84H83.05l-9.77-16.92,16.92-9.77L106,122.76a1.42,1.42,0,1,0,1.42-2.45l-15.84-9.15V91.62h19.54l9.15,15.84a1.42,1.42,0,1,0,2.45-1.42L113.62,90.2l9.77-16.92Z"/></g></g></g></svg>